<?xml version="1.0" encoding="UTF-8"?>
<svg id="Capa_1" xmlns="http://www.w3.org/2000/svg" version="1.1" viewBox="0 0 46 46">
  <!-- Generator: Adobe Illustrator 29.0.0, SVG Export Plug-In . SVG Version: 2.1.0 Build 186)  -->
  <defs>
    <style>
      .st0 {
        stroke: #12131c;
      }

      .st0, .st1, .st2 {
        fill: none;
        stroke-miterlimit: 10;
      }

      .st1 {
        stroke-width: 1.6px;
      }

      .st1, .st2 {
        stroke: #00d5ff;
      }

      .st2 {
        stroke-width: .91px;
      }
    </style>
  </defs>
  <circle class="st2" cx="30.58" cy="9.37" r="3.34"/>
  <line class="st0" x1="16.62" y1="6.54" x2="27.22" y2="9.14"/>
  <circle class="st2" cx="22.36" cy="20.68" r="3.34"/>
  <line class="st0" x1="15.22" y1="8.42" x2="20.8" y2="17.75"/>
  <line class="st0" x1="36.26" y1="23.61" x2="25.53" y2="21.64"/>
  <line class="st0" x1="37.67" y1="21.73" x2="32.29" y2="12.35"/>
  <line class="st0" x1="28.57" y1="12.01" x2="24.52" y2="17.75"/>
  <path class="st0" d="M23.95,39.14h0l-.07.39-9.44-1.73c1.02-1.14,1.64-2.65,1.64-4.3,0-.36-.03-.71-.09-1.06l7.28,1.34c-.32,1.77-.1,3.62.65,5.3,0,.02.02.04.03.06Z"/>
  <path class="st1" d="M40.4,39.02c-.08.17-.16.34-.25.51-.48.93-1.13,1.79-1.96,2.54-2.78,2.51-6.69,2.97-9.88,1.47-1.06-.49-2.03-1.2-2.87-2.12-.63-.7-1.13-1.46-1.5-2.27h0l-.03-.06c-.76-1.68-.97-3.53-.65-5.3.34-1.9,1.29-3.71,2.83-5.1.97-.88,2.09-1.51,3.26-1.89l1.59,1.76c-.15.11-.29.23-.43.35-2.41,2.18-2.61,5.91-.42,8.32,2.18,2.42,5.91,2.61,8.32.43.14-.13.27-.26.39-.39l.98,1.09.62.66Z"/>
  <circle class="st1" cx="13.4" cy="5.66" r="3.34"/>
  <circle class="st1" cx="22.37" cy="20.69" r="3.34"/>
  <circle class="st1" cx="39.48" cy="24.48" r="3.34"/>
  <circle class="st1" cx="30.58" cy="9.38" r="3.34"/>
  <circle class="st1" cx="9.63" cy="33.51" r="6.27"/>
</svg>