<?xml version="1.0" encoding="UTF-8"?>
<svg id="Capa_1" data-name="Capa 1" xmlns="http://www.w3.org/2000/svg" viewBox="0 0 46 46">
  <defs>
    <style>
      .cls-1 {
        fill: #12131c;
      }
    </style>
  </defs>
  <path class="cls-1" d="M11.5,2.45c1.84-.31,2.93.25,4.25,1.39s5.39,5.12,5.82,6.59c.38,1.29.16,2.55-.55,3.67-.57.89-1.71,1.62-2.21,2.36-.09.13-.18.22-.11.4,2.54,4.53,6.3,8.36,10.89,10.8,2.04-1.73,3.49-3.86,6.53-2.82,1.35.46,5.3,4.49,6.38,5.74,1.75,2.04,2.08,4.1.28,6.28-1.57,1.91-4.96,5.32-7.36,5.76-8,1.47-19.35-8.45-24.16-14.18C7.38,23.82.43,13.57,5.18,7.83c1.04-1.25,4.86-5.14,6.31-5.38ZM12.34,6.7c-1.49,1.82-4.61,3.46-4.52,6.05.26,7.8,11.93,19.26,18.36,23,2.06,1.2,6.57,3.42,8.88,2.52.64-.25,3.84-3.39,4.36-4.06.08-.11.23-.17.2-.34l-4.84-4.88h-.28l-3.78,3.8-.36.07c-7.6-3.35-13.64-9.39-16.95-17.01l3.96-4.23-5.03-4.93Z"/>
</svg>